<svg xmlns="http://www.w3.org/2000/svg" viewBox="390 53.7 180 60.229"><defs><style>.a{fill:red}</style></defs><path class="a" d="M427.9 53.7v8.633l-30.144 13.085L427.9 88.57v8.566l-30.144-13.288v8.363l29.944 13.356v8.16L390 97.337V70.09zm3.512 60.23v-8.567L461.56 92.21l-30.148-13.083v-8.633l30.148 13.354v-8.43L431.612 62.13v-8.228l37.7 16.39v27.247zm62.118-22.932v-4.586h8.094l-.81-6.138h-7.283V76.43h9.713v-6.138h-17.807v26.843h18.345v-6.137zm30.215-12.815l1.147-6.407s-8.093-4.384-15.445-.067a6.892 6.892 0 0 0-2.428 3.44c-.945 2.36-.945 6.07.876 8.025 1.62 1.754 4.114 2.765 6.34 3.507a18.484 18.484 0 0 1 3.1 1.012c.81.472 2.293 1.35 1.08 2.9a2.73 2.73 0 0 1-2.294.742s-5.26-.27-8.97-2.5l-1.28 6.34a20.025 20.025 0 0 0 10.723 2.158s7.014.337 8.9-5.26c0 0 2.158-5.06-1.754-8.97 0 0-2.292-2.092-7.486-3.44-1.147-.2-2.5-1.148-2.36-2.43.2-1.685 2.764-1.348 3.843-1.146a21.418 21.418 0 0 1 6.008 2.095zm22.392 0l1.147-6.407s-8.094-4.384-15.445-.067a6.892 6.892 0 0 0-2.43 3.44c-.943 2.36-.943 6.07.878 8.025 1.62 1.754 4.114 2.765 6.34 3.507a18.485 18.485 0 0 1 3.1 1.012c.81.472 2.293 1.35 1.08 2.9a2.73 2.73 0 0 1-2.294.742s-5.26-.27-8.97-2.5l-1.28 6.344a20.025 20.025 0 0 0 10.724 2.158s7.014.337 8.9-5.26c0 0 2.158-5.06-1.754-8.97 0 0-2.293-2.092-7.487-3.44-1.147-.2-2.5-1.148-2.36-2.43.2-1.685 2.764-1.348 3.843-1.146a22.972 22.972 0 0 1 6.007 2.09zm21.515 0l1.147-6.407s-8.095-4.384-15.446-.067a6.892 6.892 0 0 0-2.428 3.44c-.944 2.36-.944 6.07.877 8.025 1.62 1.754 4.114 2.765 6.34 3.507a18.485 18.485 0 0 1 3.1 1.012c.81.472 2.293 1.35 1.08 2.9a2.73 2.73 0 0 1-2.294.742s-5.262-.27-8.97-2.5l-1.282 6.34a20.025 20.025 0 0 0 10.724 2.158s7.014.337 8.9-5.26c0 0 2.158-5.06-1.754-8.97 0 0-2.293-2.092-7.486-3.44-1.147-.2-2.5-1.148-2.36-2.43.2-1.685 2.764-1.348 3.843-1.146a22.165 22.165 0 0 1 6.007 2.095z"/></svg>