<?xml version="1.0" encoding="utf-8"?>
<!-- Generator: Adobe Illustrator 20.1.0, SVG Export Plug-In . SVG Version: 6.00 Build 0)  -->
<svg version="1.1" id="Layer_1" xmlns="http://www.w3.org/2000/svg" xmlns:xlink="http://www.w3.org/1999/xlink" x="0px" y="0px"
	 viewBox="0 0 134.9 74" style="enable-background:new 0 0 134.9 74;" xml:space="preserve">
<style type="text/css">
	.st0{fill:#00EC92;}
</style>
<path class="st0" d="M73.7,27.3c-1.2,0-2.3,1.1-2.3,2.3c0,6.5-0.8,8.3-0.8,8.3c-1.9,7.5-7.6,7.7-9.9,5.4c-1.9-1.9-2.7-5.9-1.9-10
	c2.1-10.8,10-9.5,13.8-7.7c1.1,0.5,2.5,0.1,3-1c0.5-1.1,0.1-2.5-1-3c-5.8-2.8-17.1-3.9-20,11c-1.1,5.4,0.3,15.8,8.8,16.6
	c3.3,0.3,6-1.2,8.1-3.4c0,0,0.3,2.9,0,6.1c-0.1,0.7-0.7,7.4-5.8,7.7c-4,0.3-5.5-1.9-6.3-2.7c-0.9-0.9-2.2-1.1-3.2-0.4
	c-1,0.8-1.1,2.2-0.4,3.2l0.1,0.1c2.2,2.9,5.2,4.3,9,4.3c0.3,0,0.7,0,1,0c7.4-0.5,9.8-8.1,10-12c0.1-2.2,0-8.5,0-8.5V29.6
	C76,28.3,75,27.3,73.7,27.3"/>
<path class="st0" d="M108.6,35.8c-1.2-0.1-2.3,0.8-2.4,2c-0.1,1.3-1,7.5-7.2,7.5c-3.1,0-4.8-3.3-5.4-6.7c2.7-0.3,7.3-1.7,11.4-7.1
	c3.7-5,2-9.2-0.8-10.6c-7.5-3.8-15,4.5-15.4,12.5c-0.8,14.1,7.6,16.4,10.2,16.4c7.3,0,11.2-5.8,11.7-11.6
	C110.7,37.1,109.8,36,108.6,35.8 M98.7,24.9c3.3-1.9,4.4,0.9,3.5,2.6c-0.9,1.9-3.8,5.6-8.8,6.7C94.3,28.2,97.2,25.7,98.7,24.9"/>
<path class="st0" d="M82.5,19.8c-1.2,0-2.2,1-2.2,2.3v25.6c0,1.2,1,2.3,2.2,2.3c1.2,0,2.3-1,2.3-2.3V22.1
	C84.8,20.8,83.8,19.8,82.5,19.8"/>
<path class="st0" d="M25.6,37.7v-8.1c0-1.2-1-2.3-2.3-2.3c-1.2,0-2.3,1.1-2.3,2.3c0,6.5-0.8,8.3-0.8,8.3c-1.9,7.5-7.6,7.7-9.9,5.4
	c-1.9-1.9-2.7-5.9-1.9-10c2.1-10.8,10-9.5,13.8-7.7c1.1,0.5,2.5,0.1,3-1c0.5-1.1,0.1-2.5-1-3c-5.8-2.8-17.1-3.9-20,11
	C3.2,38,4.5,48.4,13,49.1c3.3,0.3,6-1.2,8.1-3.4c0,0,0,0.1,0,0.3v1.7c0,1.2,1,2.3,2.2,2.3c1.2,0,2.3-1,2.3-2.3L25.6,37.7
	C25.6,37.7,25.6,37.7,25.6,37.7"/>
<path class="st0" d="M82.5,6.1c-4.7,0-8.3,2.2-8.3,5c0,2.9,3.6,5,8.3,5c4.7,0,8.3-2.2,8.3-5C90.8,8.3,87.2,6.1,82.5,6.1 M82.5,12.9
	c-2.5,0-4.1-1-4.1-1.7c0-0.7,1.6-1.7,4.1-1.7c2.5,0,4.1,1,4.1,1.7C86.7,11.8,85,12.9,82.5,12.9"/>
<path class="st0" d="M51.3,46.9c-0.3-0.5-0.9-2.4-0.9-4.5c0-2.2-0.2-14.5-0.2-14.5c0-0.5,0-3.7-2.3-6c-1-1-7.5-5.3-13.4,1.9v-2.1
	c0-1.2-1-2.3-2.3-2.3c-1.2,0-2.3,1-2.3,2.3v26.2c0,1.2,1,2.3,2.3,2.3c1.2,0,2.3-1,2.3-2.3V35.7c0.8-14.8,11.3-13,11-8
	c0,0-0.1,12,0.2,15.8c0.1,1.5,0.4,4,1.8,5.8c0.5,0.5,0.9,1.1,1.9,1.1c1.2,0,2.3-1,2.3-2.3C51.8,47.8,51.4,46.9,51.3,46.9"/>
<path class="st0" d="M81.6,59.8c-0.4,0-0.7,0.2-1,0.5v-1.9h-0.4v5.2h0.4v-0.4c0.3,0.3,0.6,0.5,1,0.5c0.4,0,1.3-0.2,1.3-1.9
	C82.9,60.6,82.4,59.8,81.6,59.8 M82.5,61.8c0,1-0.3,1.5-0.9,1.5c-0.3,0-0.6-0.2-1-0.6v-2c0.3-0.4,0.6-0.6,0.9-0.6
	C82.1,60.2,82.5,60.8,82.5,61.8"/>
<path class="st0" d="M85.6,59.9L84.9,62l-0.1,0.4c-0.1,0.2-0.1,0.4-0.2,0.6c-0.1-0.3-0.2-0.6-0.3-0.9l-0.7-2.2h-0.4l1.1,3.7L84.3,64
	c-0.2,0.5-0.3,0.6-0.6,0.6c-0.1,0-0.3,0-0.4,0l-0.1,0l-0.1,0.4l0,0c0.1,0,0.3,0.1,0.4,0.1c0.6,0,0.9-0.3,1.1-1L86,60l0-0.1H85.6z"/>
<g>
	<g>
		<path class="st0" d="M130.7,58.2c0-0.4,0.3-0.7,0.6-0.7c0.3,0,0.6,0.3,0.6,0.7c0,0.4-0.3,0.7-0.6,0.7
			C131,58.9,130.7,58.6,130.7,58.2z M130.9,58.2c0,0.3,0.2,0.5,0.5,0.5c0.3,0,0.5-0.2,0.5-0.5c0-0.3-0.2-0.5-0.5-0.5
			C131.1,57.7,130.9,57.9,130.9,58.2z M131.3,58.2L131.3,58.2l0,0.4h-0.1v-0.8l0.3,0c0.1,0,0.2,0.1,0.2,0.2c0,0.1-0.1,0.2-0.2,0.2
			l0.2,0.4h-0.2L131.3,58.2z M131.2,57.9v0.3l0.1,0c0.1,0,0.1-0.1,0.1-0.1c0-0.1-0.1-0.1-0.1-0.1H131.2z"/>
	</g>
	<g>
		<g>
			<path class="st0" d="M104.4,63.8c-0.8,0-1.4-0.7-1.4-1.5c0-0.9,0.7-1.4,1.5-1.4c0.4,0,0.7,0,1,0v-0.3c0-0.4-0.4-0.7-0.8-0.7
				c-0.4,0-0.7,0.1-1.1,0.3l-0.2-0.6c0.6-0.3,1-0.4,1.5-0.4c0.7,0,1.4,0.5,1.4,1.3l0,2.4C105.9,63.5,105.2,63.9,104.4,63.8
				L104.4,63.8z M104.7,61.6c-0.5,0-0.8,0.3-0.8,0.7c0,0.4,0.3,0.8,0.8,0.8c0.3,0,0.6-0.2,0.8-0.3v-1.3L104.7,61.6z"/>
			<path class="st0" d="M109.8,60.9c0-0.6-0.4-0.9-0.9-0.9c-0.3,0-0.6,0.1-0.8,0.3v3.5h-0.9v-3.7c0.4-0.3,0.7-0.5,1.2-0.6
				c0.3-0.1,0.8-0.2,1.3-0.1c0.5,0.1,1,0.5,1,1.1v3.2h-0.9V60.9z"/>
			<path class="st0" d="M115,64.9c-0.4,0.7-1.4,1-2.2,1l-0.2-0.6c0.5-0.1,1.3-0.1,1.6-0.6c0.1-0.2,0.1-0.7,0.1-1c0,0,0-0.1,0-0.1
				c-0.4,0.2-0.8,0.4-1.2,0.3c-1.2,0-1.7-1.2-1.7-2.2c0-0.9,0.5-2.3,1.7-2.3c0.7,0,1.4,0.2,2.1,0.8v3.2
				C115.2,63.9,115.2,64.5,115,64.9L115,64.9z M113.4,60c-0.8,0-1,0.9-1,1.6c0,0.7,0.3,1.5,1,1.5c0.4,0,0.7-0.2,1-0.4v-2.5
				C114,60.2,113.8,60,113.4,60z"/>
			<path class="st0" d="M116.7,63.5c-0.5-0.4-0.8-1.1-0.7-1.8c0-1.1,0.4-2.3,1.7-2.3c1.2,0,1.7,0.9,1.7,2.3h-2.5
				c0,1,0.5,1.6,1.1,1.6c0.4,0,0.7-0.2,1.2-0.4l0.2,0.5c-0.3,0.2-0.5,0.3-0.8,0.4C118,63.9,117.2,63.9,116.7,63.5z M116.9,61h1.6
				c0-0.6-0.3-1-0.8-1C117.2,60,117,60.5,116.9,61z"/>
			<path class="st0" d="M120.3,57.2l0.8-0.3v5.7c0,0.5,0.2,0.6,0.7,0.6v0.6c-1,0.1-1.6-0.3-1.6-1.1V57.2z"/>
			<path class="st0" d="M122.6,62.6v-2.9l0.9-0.3v3c0,0.6,0.4,0.9,1,0.9c0.3,0,0.6-0.1,0.8-0.3v-3.5h0.9v3.7
				c-0.6,0.5-1.3,0.7-2.1,0.7C123.3,63.8,122.6,63.5,122.6,62.6z"/>
			<path class="st0" d="M126.7,63.3l0.3-0.6c0.4,0.3,0.7,0.4,1.1,0.4c0.4,0,0.9-0.2,0.9-0.6c0-0.3-0.4-0.4-0.6-0.5
				c-0.1,0-0.3-0.1-0.4-0.2c-0.6-0.2-1.2-0.4-1.2-1.2c0-0.9,0.8-1.3,1.5-1.3c0.4,0,0.8,0.2,1.3,0.4l-0.3,0.6c-0.4-0.2-0.7-0.3-1-0.3
				c-0.4,0-0.7,0.2-0.7,0.5c0,0.2,0.1,0.3,0.3,0.4c0.2,0.1,0.5,0.2,0.7,0.3c0.3,0.1,0.5,0.2,0.8,0.4c0.2,0.2,0.4,0.5,0.4,0.9
				c0,1-0.9,1.4-1.7,1.4C127.7,63.9,127.2,63.7,126.7,63.3z"/>
		</g>
		<path class="st0" d="M94.3,55.9c-2.6,0-6.8,7.3-5.3,9.4c1,1.4,3.3-2.1,5.3-2.1c2.6,0,4.2,3.6,5.3,2.1
			C101.1,63.5,97.1,55.9,94.3,55.9z M97.4,63.1c-0.7,0.9-1.6-1.2-3.2-1.3c-1.2,0-2.6,2.1-3.2,1.2c-0.9-1.3,1.6-5.6,3.1-5.6
			C96,57.5,98.3,62,97.4,63.1z"/>
	</g>
</g>
</svg>
