<?xml version="1.0" encoding="utf-8"?>
<!-- Generator: Adobe Illustrator 21.0.0, SVG Export Plug-In . SVG Version: 6.00 Build 0)  -->
<svg version="1.1" id="Layer_1" xmlns="http://www.w3.org/2000/svg" xmlns:xlink="http://www.w3.org/1999/xlink" x="0px" y="0px"
	 viewBox="0 0 129 96" style="enable-background:new 0 0 129 96;" xml:space="preserve">
<style type="text/css">
	.st0{fill:#4C4C56;}
	.st1{fill:#00E8CD;}
</style>
<g>
	<g>
		<g>
			<path class="st0" d="M7.7,76.8h2.4v11.7H7.7v-5h-5v5H0.3V76.8h2.4v4.9h5V76.8z"/>
			<path class="st0" d="M12.8,87.3c-0.8-0.9-1.2-2-1.2-3.4s0.4-2.5,1.2-3.4s1.9-1.3,3.2-1.3s2.2,0.5,2.9,1.6v-1.4h2.3v9.3h-2.3v-1.6
				c-0.7,1.1-1.7,1.7-2.9,1.7S13.7,88.2,12.8,87.3z M18.2,85.9c0.5-0.5,0.7-1.2,0.7-2s-0.2-1.5-0.7-2s-1.1-0.7-1.7-0.7
				c-0.7,0-1.2,0.2-1.7,0.7S14,83,14,83.8s0.2,1.5,0.7,2c0.5,0.5,1.1,0.7,1.7,0.7C17.1,86.6,17.7,86.3,18.2,85.9z"/>
			<path class="st0" d="M25.8,79.2v1.6c0.6-1.2,1.5-1.8,2.7-1.8v2.4h-0.6c-0.7,0-1.2,0.2-1.6,0.5c-0.4,0.4-0.5,1-0.5,1.8v4.7h-2.4
				v-9.3H25.8z"/>
			<path class="st0" d="M30.5,87.3c-0.8-0.9-1.2-2-1.2-3.4s0.4-2.5,1.2-3.4s1.9-1.3,3.2-1.3s2.2,0.5,2.9,1.6v-4.6h2.3v12.4h-2.3
				v-1.6c-0.7,1.1-1.7,1.7-2.9,1.7S31.3,88.2,30.5,87.3z M35.8,85.9c0.5-0.5,0.7-1.2,0.7-2s-0.2-1.5-0.7-2s-1.1-0.7-1.7-0.7
				c-0.7,0-1.2,0.2-1.7,0.7s-0.7,1.1-0.7,2s0.2,1.5,0.7,2c0.5,0.5,1.1,0.7,1.7,0.7C34.7,86.6,35.3,86.3,35.8,85.9z"/>
			<path class="st0" d="M45,88.6c-1.4,0-2.5-0.4-3.3-1.3c-0.8-0.9-1.3-2-1.3-3.5c0-1.4,0.4-2.6,1.3-3.5c0.9-0.9,2-1.3,3.3-1.3
				s2.5,0.4,3.3,1.3s1.3,2,1.3,3.4c0,0.3,0,0.6-0.1,0.9h-6.8c0.1,0.6,0.3,1.1,0.7,1.5c0.4,0.4,0.9,0.6,1.5,0.6c0.8,0,1.4-0.3,1.8-1
				h2.5c-0.3,0.9-0.8,1.6-1.6,2.2C47,88.4,46.1,88.6,45,88.6z M46.5,81.6c-0.4-0.4-0.9-0.6-1.5-0.6c-0.6,0-1.1,0.2-1.5,0.6
				c-0.4,0.4-0.6,0.9-0.7,1.5h4.4C47.2,82.5,46.9,82,46.5,81.6z"/>
			<path class="st0" d="M53.5,79.2v1.6c0.6-1.2,1.5-1.8,2.7-1.8v2.4h-0.6c-0.7,0-1.2,0.2-1.6,0.5s-0.5,1-0.5,1.8v4.7h-2.4v-9.3H53.5
				z"/>
			<path class="st0" d="M58.2,87.3c-0.8-0.9-1.2-2-1.2-3.4s0.4-2.5,1.2-3.4s1.9-1.3,3.2-1.3s2.2,0.5,2.9,1.6v-1.4h2.3v9.3h-2.3v-1.6
				c-0.7,1.1-1.7,1.7-2.9,1.7S59,88.2,58.2,87.3z M63.5,85.9c0.5-0.5,0.7-1.2,0.7-2s-0.2-1.5-0.7-2s-1.1-0.7-1.7-0.7
				c-0.7,0-1.2,0.2-1.7,0.7s-0.7,1.1-0.7,2s0.2,1.5,0.7,2c0.5,0.5,1.1,0.7,1.7,0.7C62.4,86.6,63,86.3,63.5,85.9z"/>
			<path class="st0" d="M86.6,76.8h2.5l-3.4,11.7H83l-2.3-8.2l-2.3,8.2h-2.7l-3.3-11.7h2.5l2.2,9l2.4-9h2.7l2.2,9L86.6,76.8z"/>
			<path class="st0" d="M91,87.3c-0.9-0.9-1.4-2-1.4-3.5s0.5-2.6,1.4-3.5s2.1-1.3,3.4-1.3s2.5,0.4,3.4,1.3s1.4,2,1.4,3.5
				s-0.5,2.6-1.4,3.5c-0.9,0.9-2.1,1.3-3.4,1.3C93,88.6,91.9,88.2,91,87.3z M94.4,86.6c0.7,0,1.2-0.2,1.7-0.7s0.7-1.2,0.7-2.1
				s-0.2-1.6-0.7-2.1c-0.5-0.5-1-0.7-1.7-0.7s-1.2,0.2-1.7,0.7C92.2,82.3,92,83,92,83.9s0.2,1.6,0.7,2.1
				C93.1,86.4,93.7,86.6,94.4,86.6z"/>
			<path class="st0" d="M101.4,87.3c-0.9-0.9-1.4-2-1.4-3.5s0.5-2.6,1.4-3.5s2.1-1.3,3.4-1.3s2.5,0.4,3.4,1.3s1.4,2,1.4,3.5
				s-0.5,2.6-1.4,3.5c-0.9,0.9-2.1,1.3-3.4,1.3C103.5,88.6,102.3,88.2,101.4,87.3z M104.8,86.6c0.7,0,1.2-0.2,1.7-0.7
				s0.7-1.2,0.7-2.1s-0.2-1.6-0.7-2.1c-0.5-0.5-1-0.7-1.7-0.7s-1.2,0.2-1.7,0.7c-0.5,0.5-0.7,1.2-0.7,2.1s0.2,1.6,0.7,2.1
				C103.6,86.4,104.2,86.6,104.8,86.6z"/>
			<path class="st0" d="M111.8,87.3c-0.8-0.9-1.2-2-1.2-3.4s0.4-2.5,1.2-3.4c0.8-0.9,1.9-1.3,3.2-1.3c1.3,0,2.2,0.5,2.9,1.6v-4.6
				h2.3v12.4h-2.3v-1.6c-0.7,1.1-1.7,1.7-2.9,1.7S112.6,88.2,111.8,87.3z M117.1,85.9c0.5-0.5,0.7-1.2,0.7-2s-0.2-1.5-0.7-2
				c-0.5-0.5-1.1-0.7-1.7-0.7s-1.2,0.2-1.7,0.7s-0.7,1.1-0.7,2s0.2,1.5,0.7,2c0.5,0.5,1.1,0.7,1.7,0.7
				C116,86.6,116.6,86.3,117.1,85.9z"/>
			<path class="st0" d="M125.1,81.4c2,0,3.6,1.6,3.6,3.6c0,2-1.6,3.6-3.6,3.6c-2,0-3.5-1.6-3.5-3.6C121.6,83,123.2,81.4,125.1,81.4z
				 M125.1,87.9c1.6,0,2.8-1.3,2.8-2.9c0-1.6-1.2-2.9-2.8-2.9c-1.6,0-2.8,1.3-2.8,2.9C122.3,86.6,123.6,87.9,125.1,87.9z
				 M124.5,86.9h-0.7V83h1.4c0.8,0,1.4,0.5,1.4,1.3c0,0.5-0.3,0.9-0.8,1.1l0.8,1.6h-0.8l-0.7-1.5h-0.6V86.9z M124.5,83.7v1.2h0.5
				c0.5,0,0.7-0.2,0.7-0.6c0-0.4-0.3-0.6-0.7-0.6H124.5z"/>
		</g>
	</g>
	<g>
		<g>
			<path class="st1" d="M61.9,31.1c-2.1,0-3.8,1.7-3.8,3.8s1.7,3.8,3.8,3.8s3.8-1.7,3.8-3.8S64,31.1,61.9,31.1z M61.9,36.9
				c-1.1,0-2-0.9-2-2c0-1.1,0.9-2,2-2s2,0.9,2,2C63.9,36,63,36.9,61.9,36.9z"/>
			<path class="st1" d="M61.9,27.3c-4.2,0-7.6,3.4-7.6,7.6c0,4.2,3.4,7.6,7.6,7.6c4.2,0,7.6-3.4,7.6-7.6
				C69.5,30.7,66.1,27.3,61.9,27.3z M61.9,40.8c-3.2,0-5.9-2.6-5.9-5.9s2.6-5.9,5.9-5.9c3.2,0,5.9,2.6,5.9,5.9S65.1,40.8,61.9,40.8z
				"/>
			<path class="st1" d="M61.9,23.5c-6.3,0-11.4,5.1-11.4,11.4s5.1,11.4,11.4,11.4c6.3,0,11.4-5.1,11.4-11.4S68.2,23.5,61.9,23.5z
				 M61.9,44.6c-5.3,0-9.7-4.3-9.7-9.7s4.3-9.7,9.7-9.7s9.7,4.3,9.7,9.7S67.2,44.6,61.9,44.6z"/>
			<path class="st1" d="M75.8,28.7c-0.9-1.9-2.1-3.6-3.6-5c-0.1-0.1-0.2-0.2-0.3-0.3c-2.4-2.4-5.6-3.7-8.5-3.6c-0.1,0-0.3,0-0.4,0
				c-0.3,0-0.7,0-1,0c-8.4,0-15.2,6.8-15.2,15.2c0,1,0.1,2,0.3,3c0,0.2,0.1,0.4,0.1,0.6l0,0.1c1.6,4.8,4.6,8.7,8.3,10.5l0.1,0
				c0.2,0.1,0.4,0.1,0.6,0.2c0.6,0.2,1.3,0.3,1.9,0.4c0.2,0,0.4,0.1,0.6,0.1c1.1,0.2,2.1,0.3,3.2,0.3c0.2,0,0.4,0,0.6,0
				c0.2,0,0.4,0,0.5,0c0.6,0,1.3-0.1,1.9-0.3c0.3-0.1,0.7-0.2,0.9-0.2l0.1,0c0.2-0.1,0.4-0.1,0.6-0.2c1.1-0.4,2.2-0.8,3.1-1.4
				c0.2-0.1,0.4-0.2,0.5-0.3l0.1-0.1c0.1-0.1,0.1-0.1,0.2-0.2c0.2-0.2,0.4-0.3,0.5-0.4l0.1,0l0.1-0.1c0.2-0.1,0.3-0.3,0.5-0.4
				c3.1-2.6,5-6.3,5.3-10.3c0-0.4,0.1-0.9,0.1-1.3c0-1.8-0.3-3.5-0.9-5C76.1,29.4,75.9,29.1,75.8,28.7z M75.3,36
				c-0.3,3.5-2,6.8-4.7,9.1c-0.1,0.1-0.2,0.2-0.3,0.3c-0.3,0.2-0.6,0.4-0.9,0.6c0,0-0.1,0.1-0.1,0.1c-0.1,0.1-0.3,0.2-0.4,0.3
				c-0.9,0.5-1.8,1-2.8,1.3c-0.1,0-0.3,0.1-0.4,0.1c-0.3,0-0.7,0.1-1.1,0.2c-0.5,0.1-1.1,0.3-1.5,0.2l-0.1,0l-0.1,0
				c-0.2,0-0.4,0-0.5,0c-1.1,0-2.3-0.1-3.4-0.3c-0.2,0-0.4-0.1-0.6-0.1l-0.1,0c-0.6-0.1-1.2-0.2-1.7-0.3c-0.2,0-0.3-0.1-0.5-0.1
				c-3.3-1.6-5.9-5.1-7.4-9.5c0-0.2-0.1-0.3-0.1-0.5c-0.2-0.9-0.3-1.7-0.3-2.6c0-7.4,6-13.5,13.5-13.5c0.3,0,0.6,0,0.9,0
				c0.2,0,0.3,0,0.4,0l0.1,0l0.1,0c2.5-0.1,5.2,1.1,7.2,3.1l0,0c0.1,0.1,0.2,0.2,0.3,0.3c1.4,1.3,2.5,2.8,3.2,4.4
				c0.1,0.3,0.3,0.7,0.4,1c0.5,1.4,0.7,2.8,0.8,4.5C75.4,35.3,75.3,35.7,75.3,36z"/>
			<path class="st1" d="M80.7,31.4c0-0.2-0.1-0.3-0.1-0.5c-0.4-1.5-1.1-2.9-1.9-4.4l-0.2-0.3c-0.1-0.2-0.2-0.5-0.4-0.7
				c-0.3-0.5-0.5-1-0.8-1.4c-0.1-0.2-0.3-0.5-0.4-0.7l0,0c-0.1-0.2-0.3-0.4-0.4-0.6c-0.1-0.2-0.3-0.4-0.4-0.6
				c-0.7-1.4-1.7-2.4-3.2-3.1c-0.1-0.1-0.2-0.1-0.3-0.2c-0.1-0.1-0.2-0.2-0.4-0.3c-1.1-0.7-2.2-1.3-3.3-1.6c-0.1,0-0.2-0.1-0.4-0.1
				c-1.8-0.7-3.8-1.1-6.3-1c-0.1,0-0.2,0-0.3,0c-0.1,0-0.3,0-0.4,0c-1.6,0-3.1,0.3-4.6,0.7c-0.1,0-0.2,0-0.3,0.1l-0.1,0
				c-2.3,0.4-4.4,1.5-6.4,3.3l-0.3,0.3c-0.1,0.1-0.2,0.2-0.3,0.3c-0.2,0.1-0.3,0.3-0.5,0.4l0,0c-0.5,0.5-0.9,0.9-1.3,1.4
				c-0.1,0.1-0.2,0.2-0.2,0.3c-0.9,1-1.6,1.9-2.2,2.9l-0.1,0.2c-0.4,0.5-0.6,1.1-0.9,1.7c-0.2,0.5-0.4,0.9-0.6,1.3l0,0.1l0,0.1
				c0,0.1-0.1,0.3-0.1,0.4c-0.3,0.7-0.4,1.3-0.6,2c0,0.1-0.1,0.3-0.1,0.4l0,0c-0.2,2.1-0.5,4.3,0.3,6.4c0,0.1,0.1,0.3,0.1,0.4
				c0,0.1,0.1,0.3,0.1,0.4c0,0.1,0.1,0.2,0.1,0.4c0.2,1,0.6,1.9,1,2.8c0.1,0.1,0.1,0.3,0.2,0.4l0.1,0.4c0.2,0.6,0.5,1.3,0.8,1.9
				l0,0.1c0.1,0.1,0.1,0.3,0.2,0.4c0.4,0.6,0.8,1.3,1.2,1.9l0,0c0.1,0.2,0.2,0.3,0.3,0.5c0.5,0.7,1.1,1.3,1.6,1.8
				c0.1,0.1,0.2,0.2,0.3,0.3c0.1,0.1,0.2,0.2,0.3,0.2l0,0c1.5,1.4,3.3,2.9,5.6,3c0.2,0.1,0.5,0.1,0.7,0.2c2,0.5,4.2,0.7,5.8,0.8l0,0
				l0,0c0.1,0,0.3,0,0.4,0c0.1,0,0.3,0,0.4,0c0.3,0,0.6-0.1,0.9-0.1l0.2,0l0.2-0.1c0.1-0.1,0.5-0.1,0.8-0.1c0.5,0,1.1,0,1.6-0.3
				c0.2,0,0.5-0.1,0.7-0.2c0.5-0.1,1-0.2,1.7-0.4l0.4-0.1c1.8-0.2,3.3-1.2,4.6-2.3l0,0c0.1-0.1,0.2-0.2,0.3-0.3c1-1,2-2.1,3.1-3.8
				c0.1-0.1,0.2-0.3,0.3-0.4c0.3-0.4,0.7-0.9,1-1.4l0-0.1c0.1-0.2,0.2-0.4,0.3-0.6c0.5-1,1-2.1,1.3-3.2c0.1-0.3,0.2-0.6,0.2-0.8
				l0-0.1c0.1-0.5,0.2-1.1,0.3-1.6c0.4-1.7,0.8-3.7,0.3-5.7C80.9,32,80.8,31.7,80.7,31.4z M78.9,37.6c-0.1,0.6-0.2,1.1-0.3,1.7
				c-0.1,0.2-0.1,0.5-0.2,0.7c-0.3,1-0.7,2-1.2,2.9c-0.1,0.2-0.2,0.3-0.3,0.5c-0.3,0.4-0.6,0.9-0.9,1.3c-0.1,0.1-0.2,0.3-0.3,0.4
				l0,0.1c-1,1.5-2,2.6-2.9,3.5c-0.1,0.1-0.2,0.2-0.3,0.2c-1.3,1-2.5,1.7-3.8,1.9l-0.5,0.1c-0.7,0.2-1.2,0.3-1.6,0.4
				c-0.3,0.1-0.5,0.1-0.8,0.2l-0.2,0l-0.1,0.1c-0.1,0.1-0.5,0.1-0.7,0.1c-0.4,0-1,0-1.5,0.2c-0.2,0-0.4,0-0.6,0.1
				c-0.1,0-0.3,0-0.4,0c-0.1,0-0.2,0-0.3,0c-1.6-0.1-3.6-0.2-5.4-0.7c-0.2-0.1-0.5-0.1-0.7-0.2l-0.1,0l-0.1,0
				c-1.7,0-3.2-1.3-4.6-2.5c-0.1-0.1-0.2-0.2-0.3-0.2c-0.1-0.1-0.2-0.2-0.3-0.3c-0.5-0.5-1-1-1.5-1.6c-0.1-0.1-0.2-0.3-0.3-0.4
				c-0.4-0.6-0.7-1.1-1.1-1.7c-0.1-0.1-0.1-0.2-0.2-0.3c-0.2-0.7-0.5-1.3-0.8-1.9l-0.2-0.4l0,0c-0.1-0.2-0.1-0.3-0.2-0.5
				c-0.4-0.9-0.7-1.6-0.9-2.5l0-0.1c0-0.1-0.1-0.3-0.1-0.4c0-0.1-0.1-0.3-0.1-0.4c0-0.1-0.1-0.3-0.1-0.4l0,0
				c-0.6-1.8-0.4-3.6-0.2-5.6c0-0.1,0-0.2,0.1-0.4c0.1-0.5,0.3-1.1,0.5-1.7c0-0.1,0.1-0.2,0.1-0.3c0.3-0.5,0.5-1,0.7-1.5
				c0.2-0.5,0.4-1,0.7-1.3l0.2-0.3c0.6-0.9,1.2-1.8,2-2.7c0.1-0.1,0.2-0.2,0.2-0.3c0.4-0.4,0.8-0.9,1.2-1.3c0.1-0.1,0.3-0.2,0.4-0.4
				c0.1-0.1,0.2-0.2,0.3-0.3l0.4-0.3c1.7-1.6,3.6-2.6,5.5-2.9l0.2-0.1c0.1,0,0.2,0,0.3-0.1l0,0c1.4-0.4,2.8-0.6,4.2-0.6
				c0.1,0,0.3,0,0.4,0h0c0.1,0,0.2,0,0.3,0l0,0l0,0c2.3,0,4.1,0.2,5.6,0.9l0.1,0c0.1,0,0.3,0.1,0.4,0.1l0,0c1,0.3,1.9,0.8,2.9,1.4
				c0.1,0.1,0.2,0.2,0.3,0.2c0.1,0.1,0.2,0.2,0.3,0.2l0.1,0l0.1,0c1.2,0.6,1.9,1.3,2.5,2.4l0.1,0.1c0.1,0.2,0.3,0.4,0.4,0.6
				c0.2,0.3,0.3,0.5,0.5,0.6c0.1,0.2,0.3,0.4,0.4,0.6c0.3,0.4,0.5,0.9,0.7,1.3c0.1,0.2,0.2,0.5,0.4,0.7l0.2,0.4l0,0.1
				c0.8,1.3,1.4,2.6,1.8,4c0,0.1,0.1,0.3,0.1,0.4l0,0c0.1,0.3,0.1,0.5,0.2,0.8l0,0.1C79.7,34.3,79.3,36,78.9,37.6z"/>
			<path class="st1" d="M83.8,29.6L83.8,29.6c-0.1-0.2-0.1-0.4-0.2-0.5c-0.5-1.3-1.2-2.5-2-3.7c-0.2-0.3-0.3-0.5-0.4-0.8L81,24.4
				c-0.1-0.1-0.2-0.3-0.2-0.4l-0.2-0.4c-0.1-0.2-0.2-0.5-0.4-0.7c-0.1-0.2-0.2-0.5-0.3-0.8c-0.8-2.8-3.1-5-7.1-6.6
				c-0.2-0.1-0.3-0.2-0.5-0.3c-0.4-0.2-0.7-0.4-1.1-0.6L71,14.4c-2.4-1.8-5.5-2.7-8.7-2.3c-0.1,0-0.2,0-0.4,0l-0.2,0l-0.1,0.1
				c-0.1,0-0.3,0-0.3,0l-0.1,0l-0.4,0c-0.2,0-0.3,0-0.5,0.1c-0.7,0.1-1.3,0.1-2,0.2l-0.1,0c-0.2,0-0.3,0-0.5,0.1
				c-1.1,0.1-2.1,0.4-3.1,0.7c-0.1,0-0.3,0.1-0.4,0.1c-0.8,0.3-1.6,0.6-2.2,1c-0.1,0.1-0.3,0.1-0.4,0.2c-1.5,0.8-2.8,1.9-3.9,3.2
				c-0.1,0-0.1,0.1-0.2,0.1c-0.4,0.2-0.7,0.4-1,0.6l-0.1,0l-0.1,0.1c-0.1,0.1-0.2,0.2-0.4,0.3c-0.4,0.4-0.9,0.8-1.3,1.2
				c-0.1,0.1-0.2,0.2-0.3,0.3l-0.1,0.1l-0.1,0.1c-0.6,1-1.2,1.9-2,2.9c-0.7,0.9-1.4,1.8-2,2.8c-0.1,0.1-0.2,0.3-0.2,0.4L40,26.8
				l0,0.2c-0.1,0.7-0.2,1.4-0.5,2.3c0,0.1-0.1,0.3-0.1,0.4l0,0.1c-0.1,0.5-0.2,1-0.3,1.5c-0.5,2.5-1.1,5,0.4,7.5
				c0.1,0.1,0.1,0.2,0.2,0.3c0.3,0.7,0.6,1.5,1,2.2c0.7,1.8,1.5,3.6,2.6,5.3c0.1,0.1,0.1,0.2,0.2,0.3c0.4,0.7,0.9,1.5,1.5,2.4
				l0.1,0.1c0.1,0.1,0.2,0.3,0.4,0.4l0.1,0.1c0.2,0.2,0.4,0.3,0.6,0.5c0.1,0.1,0.3,0.3,0.4,0.4c1.2,2.9,3.5,4.6,6.7,4.9
				c0.2,0,0.5,0,0.8,0l0.2,0c0.1,0,0.2,0,0.3,0c0.1,0,0.1,0,0.2,0c2,1.3,4.1,1.3,6.1,1.2c0.7,0,1.4,0,2,0l0.1,0c0.2,0,0.3,0,0.5,0
				c1.1,0,2.1-0.2,3.2-0.4c1.2-0.2,2.2-0.4,3.3-0.4c0.2,0,0.3,0,0.5,0c2.5-0.1,4.7-1.4,6.6-4c0.1-0.1,0.2-0.2,0.3-0.3
				c1-1,1.8-2.2,2.6-3.4c0.4-0.6,0.8-1.2,1.3-1.8c0.1-0.1,0.2-0.3,0.3-0.4c0.6-0.8,1-1.6,1.3-2.4c0-0.1,0.1-0.2,0.1-0.4l0-0.1
				c0.1-0.2,0.1-0.4,0.2-0.6c0.6-1,1.1-2.1,1.3-3.1c0-0.2,0.1-0.3,0.1-0.4c0.8-3.6,0.6-6.8-0.4-9.7L83.8,29.6z M82.5,39.2
				c0,0.1-0.1,0.3-0.1,0.4c-0.2,0.9-0.6,1.8-1.2,2.7l-0.1,0.1l0,0.1c-0.1,0.3-0.2,0.5-0.2,0.8l0,0.1c0,0.1-0.1,0.2-0.1,0.3
				c-0.2,0.6-0.6,1.3-1.1,2c-0.1,0.1-0.2,0.2-0.3,0.3c-0.5,0.6-0.9,1.3-1.3,1.9c-0.8,1.1-1.5,2.2-2.4,3.1c-0.1,0.1-0.2,0.2-0.3,0.3
				l-0.1,0.1l0,0.1c-1.6,2.1-3.4,3.2-5.3,3.3c-0.1,0-0.3,0-0.4,0c0,0,0,0-0.1,0c-1.2,0-2.4,0.2-3.6,0.4c-1,0.2-2,0.4-2.9,0.4
				c-0.1,0-0.2,0-0.4,0c-0.4,0-0.8,0-1.3,0c-0.3,0-0.6,0-0.9,0c-1.9,0-3.6,0.1-5.2-1l-0.1-0.1l-0.2,0c-0.2,0-0.3-0.1-0.5-0.1
				c-0.1,0-0.3,0-0.4-0.1l-0.3,0c-0.2,0-0.5,0-0.7,0c-2.6-0.2-4.4-1.5-5.3-3.9L47.8,50l-0.1-0.1c-0.2-0.2-0.4-0.4-0.6-0.6
				c-0.2-0.2-0.4-0.4-0.6-0.6c-0.1-0.1-0.2-0.2-0.3-0.3c-0.6-0.9-1-1.6-1.4-2.3c-0.1-0.1-0.1-0.2-0.2-0.3l0,0c-1-1.5-1.7-3.2-2.5-5
				c-0.3-0.7-0.6-1.5-1-2.3c-0.1-0.1-0.1-0.3-0.2-0.4l0-0.1c-1.2-1.9-0.7-4-0.2-6.3c0.1-0.5,0.2-1,0.3-1.5c0-0.1,0.1-0.2,0.1-0.4
				c0.3-0.9,0.5-1.7,0.5-2.5c0-0.1,0.1-0.1,0.1-0.2c0.6-0.9,1.2-1.8,1.9-2.7c0.7-0.9,1.4-1.9,2.1-3c0.1-0.1,0.1-0.1,0.2-0.2
				c0.4-0.4,0.8-0.8,1.2-1.1c0.1-0.1,0.2-0.2,0.3-0.2c0.3-0.2,0.7-0.4,1-0.6c0.1-0.1,0.2-0.2,0.4-0.2l0.1-0.1l0.1-0.1
				c1-1.2,2.2-2.2,3.5-2.9c0.1-0.1,0.2-0.1,0.4-0.2l0.1,0c0.6-0.3,1.2-0.6,1.9-0.8c0.1,0,0.3-0.1,0.4-0.1l0,0
				c0.9-0.3,1.8-0.5,2.8-0.6c0.1,0,0.2,0,0.4,0c0.8,0,1.5-0.1,2.1-0.2c0.2,0,0.3,0,0.5-0.1l0.3,0c0.2,0,0.6,0,1-0.1
				c0.1,0,0.2,0,0.3,0c2.7-0.3,5.4,0.4,7.5,2l0.1,0l0.4,0.2c0.3,0.2,0.7,0.4,1,0.6c0.2,0.1,0.3,0.2,0.5,0.3l0.1,0.1
				c3.5,1.4,5.5,3.2,6.1,5.5l0,0.1c0.1,0.3,0.2,0.5,0.3,0.8l0,0.1l0,0.1c0.1,0.3,0.3,0.5,0.4,0.8l0.3,0.5c0.1,0.1,0.2,0.3,0.2,0.4
				l0.1,0.2c0.2,0.3,0.3,0.6,0.5,0.9l0.1,0.1c0.8,1,1.4,2.1,1.8,3.3c0,0.1,0.1,0.2,0.1,0.3l0.1,0.4l0,0.1
				C83.1,33,83.2,35.9,82.5,39.2z"/>
			<path class="st1" d="M88.6,35.6L87.8,36L87,36.4l0,0c0.3,0.6,0.5,1.1,0.5,1.5c-0.1,0.9-0.2,1.8-0.4,2.6c-0.1,0.6-0.6,1-1.1,1.5
				c-0.4,0.4-0.8,0.8-1,1.3c-0.4,1.2-1,2.3-1.6,3.4c-0.2,0.4-0.3,1-0.3,1.5c0,0.6-0.1,1.2-0.4,1.6c-0.8,1.1-1.7,2.1-2.7,3.1
				c-0.4,0.4-1,0.6-1.7,0.8c-0.6,0.2-1.2,0.3-1.6,0.7c-1,0.8-2.1,1.5-3.3,2.1c-0.4,0.2-0.8,0.6-1.2,1.1c-0.4,0.5-0.9,0.9-1.4,1.1
				c-0.3,0.1-0.6,0.2-0.9,0.4l0,0c-1,0.4-2,0.8-3,1c-0.9,0.2-1.8-0.1-2.8-0.3c-0.8-0.2-1.5-0.4-2.2-0.4c-0.5,0-1.1,0.2-1.6,0.4
				c-0.6,0.2-1.1,0.4-1.6,0.4c-0.1,0-0.1,0-0.2,0c-0.5-0.1-0.9-0.1-1.3-0.1c-0.7,0-1.4-0.1-2.1-0.3c-0.7-0.2-1.5-0.9-2.2-1.5
				c-0.6-0.5-1.1-1-1.7-1.3c-0.4-0.2-0.9-0.2-1.3-0.2c0,0-0.1,0-0.1,0c-0.5,0-1,0-1.4-0.3c-0.9-0.6-1.9-1.3-2.7-2
				c-0.4-0.4-0.8-1-1.1-1.7c-0.3-0.6-0.6-1.1-0.9-1.4c-0.6-0.6-1.1-1.3-1.6-2c-0.4-0.6-0.9-1.2-1.3-1.9c-0.3-0.5-0.8-0.8-1.3-1.2
				c-0.6-0.4-1.2-0.8-1.4-1.3c-0.4-0.8-0.7-1.7-0.9-2.6c-0.3-0.9-0.5-1.8-0.7-2.7c-0.1-0.8,0.1-1.8,0.4-2.7c0.2-0.8,0.4-1.5,0.4-2.2
				c0-0.8,0-1.5,0.1-2.3c0.1-0.9,0.2-1.8,0.4-2.6c0.2-1.1,0.5-2.3,0.9-3.4c0.2-0.7,0.4-1.4,0.5-2.3c0.2-1.1,0.4-2.3,0.9-3.1
				c0.7-1.1,1.5-2.2,2.3-3.2c0.5-0.6,1.4-1,2.2-1.3c0.7-0.3,1.3-0.5,1.9-1c0.4-0.3,0.7-0.9,1.1-1.4c0.4-0.6,0.7-1.2,1.3-1.5
				c1.1-0.6,2.2-1.2,3.3-1.6c0.6-0.3,1.4-0.2,2.3-0.2c0.7,0,1.4,0.1,1.9-0.1c0.7-0.2,1.4-0.5,2.1-0.8c1-0.5,2-0.9,3.1-0.9
				c1.6,0,3.1,0.1,4.6,0.4c0.6,0.1,1.3,0.6,2,1.1c0.5,0.4,1.1,0.8,1.6,1c1.3,0.5,2.6,1,3.8,1.7c0.6,0.3,1.3,0.4,1.9,0.4
				c0.7,0,1.4,0.1,2,0.5c0.9,0.7,1.7,1.4,2.4,2.3c0.3,0.4,0.6,1.2,0.9,2c0.3,0.8,0.5,1.4,0.7,1.7c0.3,0.4,0.8,0.7,1.3,1.1
				c0.6,0.4,1.2,0.8,1.4,1.2c0.7,1.1,1.1,2.7,1.6,4.1c0.1,0.4,0.2,0.8,0.4,1.1c0.2,0.6,0.1,1,0,1.5c-0.1,0.4-0.2,0.9-0.1,1.4
				c0.2,1.4,0.4,2.9,0.4,4.3c0,0.4,0.2,0.9,0.5,1.5l0.8-0.4L88.6,35.6c-0.1-0.2-0.3-0.6-0.3-0.8c0-1.5-0.1-3.1-0.4-4.6
				c0-0.2,0-0.4,0.1-0.7c0.1-0.5,0.3-1.4,0-2.4c-0.1-0.3-0.2-0.7-0.3-1.1c-0.5-1.5-1-3.2-1.7-4.5c-0.5-0.8-1.2-1.3-2-1.8
				c-0.3-0.2-0.8-0.5-0.9-0.6c-0.1-0.2-0.4-0.9-0.5-1.3c-0.3-1-0.7-2-1.3-2.6c-0.8-0.9-1.7-1.7-2.6-2.4c-1-0.8-2.2-0.9-3-0.9
				c-0.5,0-0.9,0-1.1-0.2c-1.3-0.7-2.7-1.3-4.1-1.8c-0.3-0.1-0.8-0.4-1.2-0.7c-0.8-0.6-1.7-1.2-2.7-1.4c-1.6-0.3-3.3-0.5-5-0.5
				c-1.5,0-2.7,0.6-3.9,1.1c-0.6,0.3-1.2,0.6-1.8,0.7c-0.4,0.1-0.9,0.1-1.5,0c-1-0.1-2-0.1-3,0.3c-1.2,0.5-2.4,1.1-3.5,1.8
				c-0.9,0.5-1.4,1.4-1.9,2.1c-0.2,0.4-0.5,0.8-0.7,1c-0.3,0.3-0.9,0.5-1.4,0.7c-1,0.4-2.1,0.8-2.9,1.8c-0.9,1.1-1.8,2.2-2.5,3.5
				c-0.7,1.1-0.9,2.5-1.1,3.8c-0.1,0.7-0.2,1.5-0.4,2c-0.4,1.2-0.8,2.4-1,3.6c-0.2,0.9-0.3,1.9-0.4,2.8c-0.1,0.8-0.1,1.6-0.1,2.4
				c0,0.5-0.2,1.1-0.4,1.8c-0.3,1.1-0.6,2.3-0.4,3.5c0.2,1,0.4,1.9,0.7,2.9c0.3,0.9,0.6,1.9,1,2.8c0.4,1,1.3,1.5,2,2
				c0.3,0.2,0.7,0.5,0.8,0.6c0.4,0.7,0.9,1.4,1.3,2c0.5,0.7,1.1,1.5,1.7,2.1c0.2,0.2,0.4,0.7,0.7,1.1c0.4,0.8,0.9,1.6,1.5,2.2
				c0.9,0.8,1.9,1.5,2.9,2.2c0.9,0.6,1.8,0.6,2.4,0.6c0.2,0,0.5,0,0.6,0c0.3,0.2,0.8,0.6,1.3,1c0.8,0.7,1.7,1.5,2.9,1.9
				c0.9,0.3,1.8,0.3,2.5,0.4c0.4,0,0.8,0,1.2,0.1c0.1,0,0.3,0,0.4,0c0.8,0,1.5-0.2,2.1-0.5c0.4-0.1,0.8-0.3,1.1-0.3
				c0.5,0,1.1,0.2,1.8,0.3c1.1,0.3,2.3,0.6,3.5,0.3c1.2-0.2,2.3-0.7,3.4-1.1l0,0c0.3-0.1,0.6-0.2,0.9-0.4c0.9-0.3,1.5-1,2.1-1.6
				c0.3-0.3,0.6-0.6,0.8-0.7c1.2-0.7,2.4-1.4,3.5-2.3c0.2-0.1,0.7-0.3,1-0.4c0.8-0.2,1.7-0.5,2.4-1.2c1-1,2-2.1,2.8-3.3
				c0.6-0.8,0.6-1.7,0.7-2.5c0-0.3,0.1-0.7,0.1-0.8c0.6-1.2,1.2-2.4,1.7-3.6c0.1-0.2,0.4-0.5,0.6-0.7c0.6-0.6,1.3-1.3,1.5-2.4
				c0.2-0.9,0.3-1.9,0.4-2.8C89.3,37.2,88.9,36.4,88.6,35.6z"/>
		</g>
	</g>
</g>
<g>
</g>
<g>
</g>
<g>
</g>
<g>
</g>
<g>
</g>
<g>
</g>
</svg>
