<svg xmlns="http://www.w3.org/2000/svg" xmlns:xlink="http://www.w3.org/1999/xlink" preserveAspectRatio="xMidYMid" width="121" height="121" viewBox="0 0 121 121">
  <defs>
    <style>
      .cls-1 {
        fill: #3b3d40;
        fill-rule: evenodd;
      }
    </style>
  </defs>
  <path d="M60.501,120.993 C27.141,120.993 -0.001,93.856 -0.001,60.499 C-0.001,27.143 27.141,0.006 60.501,0.006 C93.860,0.006 121.000,27.143 121.000,60.499 C121.000,93.856 93.860,120.993 60.501,120.993 ZM60.004,3.001 C28.569,3.001 2.996,28.572 2.996,60.002 C2.996,91.432 28.569,117.003 60.004,117.003 C91.436,117.003 117.010,91.432 117.010,60.002 C117.010,28.572 91.436,3.001 60.004,3.001 ZM79.724,37.914 L74.030,37.914 L73.695,37.914 L59.949,51.658 L54.312,37.914 L48.219,37.914 L42.829,37.914 L42.751,37.914 L42.776,37.966 L30.749,49.991 C25.664,55.077 25.664,63.351 30.749,68.436 C33.205,70.891 36.480,72.243 39.973,72.243 C43.466,72.243 46.742,70.891 49.197,68.436 L54.512,63.122 L58.995,72.732 L58.995,87.554 L69.276,87.554 L69.276,72.237 L85.591,37.914 L79.724,37.914 ZM46.183,65.422 C44.533,67.072 42.327,67.981 39.973,67.981 C37.619,67.981 35.413,67.072 33.764,65.422 C30.341,61.999 30.341,56.428 33.764,53.005 L44.693,42.078 L52.594,59.012 L46.183,65.422 ZM64.171,61.954 L61.702,55.933 L70.073,47.564 L64.171,61.954 Z" class="cls-1"/>
</svg>
