<?xml version="1.0" encoding="utf-8"?>
<!-- Generator: Adobe Illustrator 23.0.2, SVG Export Plug-In . SVG Version: 6.00 Build 0)  -->
<svg version="1.1" id="Layer_1" xmlns="http://www.w3.org/2000/svg" xmlns:xlink="http://www.w3.org/1999/xlink" x="0px" y="0px"
	 viewBox="0 0 70 70" style="enable-background:new 0 0 70 70;" xml:space="preserve">
<style type="text/css">
	.st0{fill:none;stroke:#D8473A;stroke-width:5.6872;stroke-linecap:round;stroke-linejoin:round;}
</style>
<path class="st0" d="M27.2,56.4C13,60.6,13,49.3,7.3,47.8 M47.1,64.9v-11c0.2-2.7-0.8-5.4-2.7-7.4c8.9-1,18.3-4.4,18.3-19.9
	c0-4-1.5-7.8-4.3-10.7c1.3-3.5,1.2-7.3-0.3-10.7c0,0-3.4-1-11.1,4.2c-6.5-1.8-13.4-1.8-19.9,0c-7.8-5.2-11.1-4.2-11.1-4.2
	c-1.5,3.4-1.6,7.2-0.3,10.7c-2.8,2.9-4.3,6.7-4.3,10.7c0,15.4,9.4,18.8,18.3,19.9c-1.9,2-2.9,4.6-2.7,7.3v11"/>
</svg>
