<?xml version="1.0" encoding="utf-8"?>
<!-- Generator: Adobe Illustrator 23.0.2, SVG Export Plug-In . SVG Version: 6.00 Build 0)  -->
<svg version="1.1" id="Layer_1" xmlns="http://www.w3.org/2000/svg" xmlns:xlink="http://www.w3.org/1999/xlink" x="0px" y="0px"
	 viewBox="0 0 70 70" style="enable-background:new 0 0 70 70;" xml:space="preserve">
<style type="text/css">
	.st0{fill:none;stroke:#D8473A;stroke-width:5.5;stroke-linecap:round;stroke-linejoin:round;}
</style>
<g>
	<path class="st0" d="M21.2,7.5h27.5c7.6,0,13.8,6.2,13.8,13.8v27.5c0,7.6-6.2,13.8-13.8,13.8H21.2c-7.6,0-13.8-6.2-13.8-13.8V21.2
		C7.5,13.7,13.7,7.5,21.2,7.5z"/>
	<path class="st0" d="M45.9,33.3c0.9,6-3.3,11.6-9.3,12.5c-6,0.9-11.6-3.3-12.5-9.3c-0.9-6,3.3-11.6,9.3-12.5c1.1-0.2,2.2-0.2,3.2,0
		C41.4,24.7,45.2,28.5,45.9,33.3z"/>
	<line class="st0" x1="35" y1="19.9" x2="35" y2="19.9"/>
</g>
</svg>
