<?xml version="1.0" encoding="utf-8"?>
<!-- Generator: Adobe Illustrator 23.0.2, SVG Export Plug-In . SVG Version: 6.00 Build 0)  -->
<svg version="1.1" id="Layer_1" xmlns="http://www.w3.org/2000/svg" xmlns:xlink="http://www.w3.org/1999/xlink" x="0px" y="0px"
	 viewBox="0 0 70 70" style="enable-background:new 0 0 70 70;" xml:space="preserve">
<style type="text/css">
	.st0{fill:none;stroke:#D8473A;stroke-width:4.1184;stroke-linecap:round;stroke-linejoin:round;}
</style>
<path class="st0" d="M62.5,48.7V57c0,3.1-2.5,5.5-5.5,5.6c-0.2,0-0.3,0-0.5,0C48,61.6,39.8,58.7,32.6,54
	c-6.7-4.2-12.3-9.9-16.6-16.6c-4.7-7.2-7.6-15.4-8.5-24c-0.3-3,2-5.7,5-6c0.2,0,0.3,0,0.5,0h8.3c2.8,0,5.1,2,5.5,4.8
	c0.4,2.7,1,5.3,1.9,7.8c0.8,2,0.3,4.3-1.2,5.8L24,29.3C28,36.2,33.7,42,40.6,45.9l3.5-3.5c1.5-1.5,3.8-2,5.8-1.2
	c2.5,0.9,5.1,1.6,7.8,1.9C60.5,43.5,62.6,45.9,62.5,48.7z"/>
</svg>
