<?xml version="1.0" encoding="utf-8"?>
<!-- Generator: Adobe Illustrator 23.0.2, SVG Export Plug-In . SVG Version: 6.00 Build 0)  -->
<svg version="1.1" id="Layer_1" xmlns="http://www.w3.org/2000/svg" xmlns:xlink="http://www.w3.org/1999/xlink" x="0px" y="0px"
	 viewBox="0 0 125 125" style="enable-background:new 0 0 125 125;" xml:space="preserve">
<style type="text/css">
	.st0{fill:#FFFFFF;}
</style>
<g transform="translate(-226 -1452)">
	<circle class="st0" cx="288.5" cy="1514.5" r="62.5"/>
</g>
<g>
	<g>
		<defs>
			<path id="SVGID_1_" d="M62.5,100.6c21,0,38.1-17.1,38.1-38.1c0-21-17.1-38.1-38.1-38.1c-21,0-38.1,17.1-38.1,38.1
				C24.4,83.5,41.5,100.6,62.5,100.6L62.5,100.6z"/>
		</defs>
		<clipPath id="SVGID_2_">
			<use xlink:href="#SVGID_1_"  style="overflow:visible;"/>
		</clipPath>
		<g style="clip-path:url(#SVGID_2_);">
			
				<image style="overflow:visible;" width="1168" height="1165" xlink:href="9232FF1D10032E1F.jpg"  transform="matrix(6.564830e-02 0 0 -6.564830e-02 24.2368 100.7632)">
			</image>
		</g>
	</g>
	<g>
		<defs>
			<path id="SVGID_3_" d="M75.8,89c9.5-4.4,16.1-14,16.1-25.1c0-2.8-0.4-5.5-1.2-8C86,67,81.1,78.1,75.8,89L75.8,89z M56.2,90.4
				c2.5,0.8,5.2,1.2,8,1.2c2.8,0,5.5-0.4,8-1.2l-8-17.4L56.2,90.4L56.2,90.4L56.2,90.4z M37.7,55.9c-0.8,2.5-1.2,5.2-1.2,8
				c0,11.1,6.6,20.7,16.1,25.1C47.3,78.1,42.4,67,37.7,55.9L37.7,55.9L37.7,55.9z M72.1,37.4c-2.5-0.8-5.2-1.2-7.9-1.2
				c-2.8,0-5.4,0.4-7.9,1.2l7.9,17.8L72.1,37.4L72.1,37.4L72.1,37.4z M49.9,40.2c-3.2,1.9-6,4.5-8.1,7.5l12.7,29.9l5.7-12.6h4.1h4.1
				L74,77.7l12.7-29.9c-2.2-3-4.9-5.6-8.1-7.5l-10.2,23h-4.1h-4.1L49.9,40.2L49.9,40.2L49.9,40.2z M64.2,31
				c18.1,0,32.9,14.8,32.9,32.9S82.3,96.8,64.2,96.8c-18.1,0-32.9-14.8-32.9-32.9S46.1,31,64.2,31L64.2,31L64.2,31z"/>
		</defs>
		<clipPath id="SVGID_4_">
			<use xlink:href="#SVGID_3_"  style="overflow:visible;"/>
		</clipPath>
		<g style="clip-path:url(#SVGID_4_);">
			
				<image style="overflow:visible;" width="1008" height="1005" xlink:href="9232FF1D10032E1D.jpg"  transform="matrix(6.564830e-02 0 0 -6.564830e-02 31.2272 96.8947)">
			</image>
		</g>
	</g>
	<g>
		<defs>
			<path id="SVGID_5_" d="M73.9,87.4c9.5-4.4,16.1-14,16.1-25.1c0-2.8-0.4-5.5-1.2-8L73.9,87.4L73.9,87.4z M54.2,88.7
				c2.5,0.8,5.2,1.2,8,1.2c2.8,0,5.5-0.4,8-1.2l-8-17.4L54.2,88.7L54.2,88.7L54.2,88.7z M35.7,54.2c-0.8,2.5-1.2,5.2-1.2,8
				c0,11.1,6.6,20.7,16.1,25.1L35.7,54.2L35.7,54.2L35.7,54.2z M70.4,35.8c-2.5-0.8-5.2-1.2-7.9-1.2c-2.8,0-5.4,0.4-7.9,1.2
				l7.9,17.8L70.4,35.8L70.4,35.8L70.4,35.8z M48.2,38.7c-3.2,1.9-6,4.5-8.1,7.5l12.7,29.9l5.7-12.6h8.2l5.7,12.6L85,46.2
				c-2.2-3-4.9-5.6-8.1-7.5l-10.2,23h-8.2L48.2,38.7L48.2,38.7L48.2,38.7z M63.7,29.7c16.5,0.1,31.4,14.5,31.4,32.6
				c0,18.1-14.8,32.9-32.9,32.9S29.7,80.5,29.7,62.4c0-18.1,15.9-32.6,32.2-32.8L63.7,29.7L63.7,29.7z"/>
		</defs>
		<clipPath id="SVGID_6_">
			<use xlink:href="#SVGID_5_"  style="overflow:visible;"/>
		</clipPath>
		<g style="clip-path:url(#SVGID_6_);">
			
				<image style="overflow:visible;" width="1004" height="1002" xlink:href="9232FF1D10032E23.jpg"  transform="matrix(6.564830e-02 0 0 -6.564830e-02 29.5688 95.2251)">
			</image>
		</g>
	</g>
	<g>
		<defs>
			<path id="SVGID_7_" d="M74.1,87.6c9.5-4.4,16.1-14,16.1-25.1c0-2.8-0.4-5.5-1.2-8L74.1,87.6L74.1,87.6z M54.5,89
				c2.5,0.8,5.2,1.2,8,1.2c2.8,0,5.5-0.4,8-1.2l-8-17.4L54.5,89L54.5,89L54.5,89z M36,54.5c-0.8,2.5-1.2,5.2-1.2,8
				c0,11.1,6.6,20.7,16.1,25.1L36,54.5L36,54.5L36,54.5z M70.4,36c-2.5-0.8-5.2-1.2-7.9-1.2c-2.8,0-5.4,0.4-7.9,1.2l7.9,17.8
				L70.4,36L70.4,36L70.4,36z M48.2,38.8c-3.2,1.9-6,4.5-8.1,7.5l12.7,29.9l5.7-12.6h8.2l5.7,12.6L85,46.3c-2.2-3-4.9-5.6-8.1-7.5
				l-10.2,23h-8.2L48.2,38.8L48.2,38.8L48.2,38.8z M62.5,29.6c18.1,0,32.9,14.8,32.9,32.9c0,18.1-14.8,32.9-32.9,32.9
				S29.6,80.6,29.6,62.5C29.6,44.4,44.4,29.6,62.5,29.6L62.5,29.6L62.5,29.6z"/>
		</defs>
		<clipPath id="SVGID_8_">
			<use xlink:href="#SVGID_7_"  style="overflow:visible;"/>
		</clipPath>
		<g style="clip-path:url(#SVGID_8_);">
			
				<image style="overflow:visible;" width="1008" height="1004" xlink:href="9232FF1D10032E25.jpg"  transform="matrix(6.564830e-02 0 0 -6.564830e-02 29.5543 95.4456)">
			</image>
		</g>
	</g>
</g>
</svg>
