<?xml version="1.0" encoding="utf-8"?>
<!-- Generator: Adobe Illustrator 23.0.2, SVG Export Plug-In . SVG Version: 6.00 Build 0)  -->
<svg version="1.1" id="Layer_1" xmlns="http://www.w3.org/2000/svg" xmlns:xlink="http://www.w3.org/1999/xlink" x="0px" y="0px"
	 viewBox="0 0 70 70" style="enable-background:new 0 0 70 70;" xml:space="preserve">
<style type="text/css">
	.st0{fill:none;stroke:#D8473A;stroke-width:4.9997;stroke-linecap:round;stroke-linejoin:round;}
</style>
<g>
	<path class="st0" d="M61.3,21.7c-0.6-2.4-2.5-4.3-4.8-5c-4.3-1-21.5-1-21.5-1s-17.2,0-21.5,1.1c-2.4,0.7-4.2,2.6-4.8,5
		C7.9,26.2,7.5,30.6,7.5,35c0,4.5,0.4,8.9,1.1,13.3c0.7,2.3,2.5,4.2,4.8,4.8c4.3,1.1,21.5,1.1,21.5,1.1s17.2,0,21.5-1.1
		c2.4-0.7,4.2-2.6,4.8-5c0.8-4.3,1.2-8.7,1.1-13.1C62.5,30.6,62.1,26.1,61.3,21.7z"/>
	<polygon class="st0" points="29.4,43.2 43.7,35 29.4,26.9 	"/>
</g>
</svg>
